<?xml version="1.0" encoding="utf-8"?>
<!-- Generator: Adobe Illustrator 16.0.0, SVG Export Plug-In . SVG Version: 6.00 Build 0)  -->
<!DOCTYPE svg PUBLIC "-//W3C//DTD SVG 1.1//EN" "http://www.w3.org/Graphics/SVG/1.1/DTD/svg11.dtd">
<svg version="1.1" id="Layer_1" xmlns="http://www.w3.org/2000/svg" xmlns:xlink="http://www.w3.org/1999/xlink" x="0px" y="0px"
	 width="864px" height="864px" viewBox="0 0 864 864" enable-background="new 0 0 864 864" xml:space="preserve">
<g>
	<path fill="white" fill-rule="evenodd" clip-rule="evenodd" d="M733.354,533.886c4.506,149.604-121.147,281.637-270.611,291.661
		c-152.666,10.239-281.075-82.841-315.747-231.028c-25.361-108.4,23.272-235.474,114.169-297.596
		c4.508-3.08,10.805-6.401,15.672-5.663c68.796,10.429,131.501-9.492,191.963-38.819c15.508-7.523,29.285-7.361,45.046-3.241
		C644.533,283.377,737.707,404.498,733.354,533.886z M533.477,799.946c92.501-26.369,177.264-127.174,188.445-222.574
		c1.037-8.847-0.201-14.758-10.603-15.731c-13.677-1.279-27.296-3.166-42.348-4.958c-1.498-27.247-2.953-53.749-4.282-77.903
		c14.94-7.055,28.07-11.994,39.608-19.409c3.885-2.496,6.698-12.386,4.977-17.034c-38.023-102.624-111.168-164.862-217.95-188.297
		c-9.934-2.18-15.478,1.083-16.424,9.549c-2.045,18.325-4.512,37.017-2.829,55.192c1.068,11.538-1.888,16.714-10.731,22.209
		c-26.695,16.589-53.333,33.329-79.22,51.131c-9.934,6.831-16.431,6.093-26.083-0.677c-51.254-35.956-114.046-28.718-156.388,17.095
		c-55.906,60.489-63.362,158.06-17.303,226.457c42.881,63.679,116.299,80.777,173.923,37.858
		c20.008-14.903,34.909-36.664,53.381-56.632c25.272,14.901,54.388,29.646,81.514,47.438c8.533,5.597,22.534,18.173,22.534,18.173
		s-0.552,12.758-2.187,22.32C505.644,738.456,515.23,770.637,533.477,799.946z"/>
	<path fill="white" fill-rule="evenodd" clip-rule="evenodd" d="M318.195,161.258c-12.983,27.741-9.062,50.482,10.926,63.393
		c16.644,10.75,39.712,7.689,52.388-6.953c17.245-19.922,14.893-42.891-5.402-66.379c28.122-12.964,56.717-26.452,85.68-39.1
		c3.461-1.512,11.394,0.008,13.051,2.706c14.173,23.055,28.074,46.354,40.203,70.51c2.134,4.249-2.679,14.442-7.157,19.162
		c-34.038,35.86-77.516,54.977-124.638,65.903c-52.383,12.146-104.924,11.881-157.244-2.139c-12.281-3.29-18.902-9.56-20.366-22.194
		c-3.133-27.024-1.744-53.598,8.681-78.918c1.857-4.51,8.533-10.104,12.888-10.022C257.306,157.79,287.381,159.726,318.195,161.258z
		 M440.055,173.115c-11.22,2.719-22.936,11.269-19.999,27.817c2.349,13.234,13.925,18.865,24.844,18.149
		c13.834-0.909,18.767-11.266,18.398-22.93C462.891,183.235,451.949,172.035,440.055,173.115z"/>
	<path fill="white" fill-rule="evenodd" clip-rule="evenodd" d="M462.21,106.039c-75.746,41.547-153.885,54.015-237.307,44.467
		c3.483-15.889,11.249-20.059,24.576-18.113c63.878,9.326,123.383-6.066,179.641-35.012
		C443.285,90.094,451.215,93.391,462.21,106.039z"/>
	<path fill="white" fill-rule="evenodd" clip-rule="evenodd" d="M310.663,27.503c3.087,13.887,4.174,25.773,7.263,39.66
		c6.327-0.881,3.924-1.097,9.265-1.84L321.36,8.266c1.622-0.275,5.241-0.55,6.862-0.825l7.835,56.299c0,0,53.196,0.318,70.295,4.751
		c-20.512,21.7-91.623,35.649-154.84,30.398c15.516-12.349,35.148-22.165,58.205-30.114c-1.069-11.987-2.347-26.28-3.625-40.572
		C307.616,27.97,309.14,27.737,310.663,27.503z"/>
	<path fill="white" fill-rule="evenodd" clip-rule="evenodd" d="M662.152,557.418c-71.041,9.996-119.415,46.696-145.526,114.124
		c-34.144-20.168-73.204-43.924-105.954-64.477c0,0,1.582-7.699,3.104-13.089c14.832-52.542,12.882-103.521-13.366-152.19
		c-6.79-12.592-15.874-23.948-24.845-37.273c33.329-21.545,66.258-42.833,100.277-64.826c18.123,46.536,46.464,82.42,86.744,108.649
		c25.363,16.518,52.909,26.059,83.151,28.635c4.558,0.388,11.717,3.479,11.717,3.479
		C659.66,503.509,660.953,532.561,662.152,557.418z"/>
	<path fill="white" fill-rule="evenodd" clip-rule="evenodd" d="M348.875,434.895c33.992,43.597,35.603,90.831,25.292,143.861
		c-17.99-6.755-34.392-12.915-51.306-19.266l-12.746,20.193c9.625,7.392,31.901,28.354,40.794,36.202
		c-18.8,36.567-85.171,55.656-124.355,21.394l9.442-38.239l-17.828-12.811c-5.185,9.536-10.07,18.523-14.959,27.509
		c-28.621-22.548-38.555-85.256-21.183-138.089c7.243,3.323,14.356,6.584,21.619,9.915L219,469.213
		c-2.455-3.894-17.685-24.976-17.94-28.326c-0.54-7.093,8.461-12.496,14.388-17.676c21.582-18.863,71.539-33.78,101.565-12.812
		c-7.062,11.533-14.208,23.197-21.355,34.867l15.874,15.45C319.675,454.298,338.503,441.948,348.875,434.895z"/>
	<path fill="white" fill-rule="evenodd" clip-rule="evenodd" d="M687.251,434.267c-13.47,12.737-16.497,7.551-16.497,7.551
		c-2.987-7.781-15.832-30.398-15.832-30.398l-15.178,1.299c0.731,9.901,1.514,20.508,2.432,32.943
		c-46.878-3.12-80.814-25.001-108.85-62.179c11.411-5.897,21.979-11.358,33.257-17.189l-9.188-16.937
		c-9.498-1.051-31.82,3.281-38.536,4.116c0,0-8.011-0.633-11.963-13.067c-7.756-24.399-6.483-53.825,7.072-61.911
		c3.887-2.318,11.131-1.175,15.996,0.637C605.358,307.2,658.804,357.669,687.251,434.267z"/>
	<path fill="white" fill-rule="evenodd" clip-rule="evenodd" d="M557.374,767.185c7.46-2.802,34.219-15.372,34.219-15.372l-5.066-18.999
		c0,0-27.916-0.892-36.824-1.53c-8.497-40.292,19.724-95.733,61.794-120.695c8.666,13.993,17.384,28.067,25.787,41.637l22.705-9.339
		c0,0-9.434-39.003-12.042-51.869c19.046,0,36.301,0,55.638,0c-5.508,36.342-18.934,66.885-36.949,95.444
		c-23.441,37.158-55.369,65.832-92.941,88.141c-4.072,2.418-14.053,5.816-14.053,5.816S557.369,769.766,557.374,767.185z"/>
</g>
</svg>
